User Type,Username,Date,Text
,abhikrit,2011-02-02T14:51Z,great upload :)
[V],-jonny-,2011-02-02T18:01Z,"""most weirdest""? no thanks."
,whazzup3929,2011-02-08T09:13Z,IF YOU HAVE NOT WATCHED THIS FUCKING MOVIE YOU NEED TO BE SHOT
[V],-jonny-,2011-02-08T21:56Z,ok it's not thaaat great...
[T],V100,2011-02-12T09:15Z,Thank you!
,stretch2c,2011-02-20T15:58Z,"General
Format                           : Matroska
File size                        : 4.36 GiB
Duration                         : 1h 50mn
Overall bit rate                 : 5 631 Kbps
Encoded date                     : UTC 2009-09-28 17:16:37
Writing application              : mkvmerge v2.6.0 ('Kelly watch the Stars') built on Mar 24 2009 15:23:17
Writing library                  : libebml v0.7.7 + libmatroska v0.8.1

Video
ID                               : 1
Format                           : AVC
Format/Info                      : Advanced Video Codec
Format profile                   : High@L4.1
Format settings, CABAC           : Yes
Format settings, ReFrames        : 4 frames
Muxing mode                      : Container profile=Unknown@4.1
Codec ID                         : V_MPEG4/ISO/AVC
Duration                         : 1h 50mn
Bit rate                         : 4 988 Kbps
Width                            : 1 280 pixels
Height                           : 546 pixels
Display aspect ratio             : 2.35:1
Frame rate                       : 23.976 fps
Color space                      : YUV
Chroma subsampling               : 4:2:0
Bit depth                        : 8 bits
Scan type                        : Progressive
Bits/(Pixel*Frame)               : 0.298
Stream size                      : 3.77 GiB (87%)
Writing library                  : x264 core 75 r1259 dd026f2
Encoding settings                : cabac=1 / ref=4 / deblock=1:-3:-3 / analyse=0x3:0x113 / me=umh / subme=8 / psy=1 / psy_rd=1.3:0.2 / mixed_ref=1 / me_range=24 / chroma_me=1 / trellis=1 / 8x8dct=1 / cqm=2 / deadzone=21,11 / chroma_qp_offset=-3 / threads=6 / nr=0 / decimate=1 / mbaff=0 / bframes=3 / b_pyramid=0 / b_adapt=1 / b_bias=0 / direct=3 / wpredb=1 / keyint=250 / keyint_min=25 / scenecut=40 / rc_lookahead=40 / rc=2pass / mbtree=1 / bitrate=4988 / ratetol=1.0 / qcomp=0.60 / qpmin=10 / qpmax=51 / qpstep=4 / cplxblur=20.0 / qblur=0.5 / ip_ratio=1.40 / aq=2:0.80 / zones=151816,159303,b=0.3

Audio
ID                               : 2
Format                           : AC-3
Format/Info                      : Audio Coding 3
Mode extension                   : CM (complete main)
Codec ID                         : A_AC3
Duration                         : 1h 50mn
Bit rate mode                    : Constant
Bit rate                         : 640 Kbps
Channel(s)                       : 6 channels
Channel positions                : Front: L C R, Side: L R, LFE
Sampling rate                    : 48.0 KHz
Bit depth                        : 16 bits
Stream size                      : 507 MiB (11%)"
[V],-jonny-,2011-02-21T21:59Z,"@stretch2c
your info applies to a different file entirely. this is star trek ;)"
,Leonidas123,2011-04-19T16:21Z,"Dude, 6.5 GiB for a 720p is extremely bad encoding. 720p don't require such huge file size. Use modern codecs."
,Zeptinune,2011-05-07T10:02Z,"Lol leonidas douchebag... it's got a really high bitrate.. fucking moron lol. Some of us have Fiber optic you know and actually like a bitrate in the 10,000s"
,LordNitro2008,2011-05-23T02:54Z,So one else notices the sides of the screen about a quarter way into the movie? The start of it is fine. Looks VERY VERY GOOD!! the video i give a 20 out of 10!! lol. BUT the sides of it later in the movie are messed up. It messes with my eyes. Its like a fun house mirror. I tried to watch it but i cant focus on one spot of the movie because it keeps moving. Its crazy. You just have to download it and watch. But if your internet is slow then dont wast your time just to see how funny it looks lol.
,raynus,2011-05-31T16:13Z,"A: 10
V: 8.5
noticeable distortion BUT stunning for the size of the file."
,Fallen_Gri,2011-07-20T11:42Z,"So this one or this one:

http://thepiratebay.org/torrent/5637643/Star_Trek_1_to_11_Collection_BlurayRip_720p_H264_AAC_JBR

I can't decide but the other one is smaller :("
,D_A7,2011-09-05T14:01Z,Whole night downloading and now im stuck at 93% :(
,rock53,2011-11-09T16:46Z,"Good!

A/9 V/8"
,TyMod,2011-12-18T21:39Z,"Downloading at 2.2 mb/s.  Quite nice. Wish it was 1080P but all the ones that are have hardly any seeds.  Not complaining though.

Thanks a ton man.  Really wanted to get a good HD rip of this after watching some ""DVD Rip"" version."
,TyMod,2011-12-18T22:23Z,"Finished download in 1h12min.  Quality is outstanding.  Audio is just superb.

V/A=10000000 out of 10.
M=10 Great movie to start Star Trek back up.

Thought I would comment back on quality."
,TyMod,2011-12-18T23:00Z,"Format                           : Matroska
Format version                   : Version 1
File size                        : 6.50 GiB
Duration                         : 2h 6mn
Overall bit rate                 : 7 334 Kbps
Encoded date                     : UTC 2009-09-30 00:17:38
Writing application              : mkvmerge v2.2.0 ('Turn It On Again') built on Mar  4 2008 12:58:26
Writing library                  : libebml v0.7.7 + libmatroska v0.8.1

Video
ID                               : 1
Format                           : AVC
Format/Info                      : Advanced Video Codec
Format profile                   : High@L4.1
Format settings, CABAC           : Yes
Format settings, ReFrames        : 8 frames
Codec ID                         : V_MPEG4/ISO/AVC
Duration                         : 2h 6mn
Bit rate                         : 5 942 Kbps
Width                            : 1 280 pixels
Height                           : 532 pixels
Display aspect ratio             : 2.40:1
Frame rate                       : 23.976 fps
Color space                      : YUV
Chroma subsampling               : 4:2:0
Bit depth                        : 8 bits
Scan type                        : Progressive
Bits/(Pixel*Frame)               : 0.364
Stream size                      : 5.03 GiB (77%)
Writing library                  : x264 core 68 r1183M f21daff
Encoding settings                : cabac=1 / ref=8 / deblock=1:-3:-3 / analyse=0x3:0x133 / me=umh / subme=9 / psy_rd=1.0:0.0 / mixed_ref=1 / me_range=32 / chroma_me=1 / trellis=2 / 8x8dct=1 / cqm=0 / deadzone=21,11 / chroma_qp_offset=-2 / threads=24 / nr=0 / decimate=1 / mbaff=0 / bframes=6 / b_pyramid=0 / b_adapt=2 / b_bias=0 / direct=3 / wpredb=1 / keyint=250 / keyint_min=25 / scenecut=40 / rc=2pass / bitrate=5942 / ratetol=1.0 / qcomp=0.60 / qpmin=10 / qpmax=51 / qpstep=4 / cplxblur=20.0 / qblur=0.5 / ip_ratio=1.40 / pb_ratio=1.30 / aq=1:0.80
Language                         : English

Audio
ID                               : 2
Format                           : DTS
Format/Info                      : Digital Theater Systems
Codec ID                         : A_DTS
Duration                         : 2h 6mn
Bit rate mode                    : Constant
Bit rate                         : 1 510 Kbps
Channel(s)                       : 6 channels
Channel positions                : Front: L C R, Side: L R, LFE
Sampling rate                    : 48.0 KHz
Bit depth                        : 24 bits
Compression mode                 : Lossy
Stream size                      : 1.34 GiB (21%)
Language                         : English"
